<mxfile host="app.diagrams.net" modified="2024-03-11T22:39:18.006Z" agent="Mozilla/5.0 (Windows NT 10.0; Win64; x64) AppleWebKit/537.36 (KHTML, like Gecko) Chrome/122.0.0.0 Safari/537.36" etag="gG0USV_SfwYX1YiLn89G" version="24.0.1" type="device">
  <diagram name="Page-1" id="2ICpquBxcvu_lCDLK03f">
    <mxGraphModel dx="676" dy="1012" grid="1" gridSize="10" guides="1" tooltips="1" connect="1" arrows="1" fold="1" page="1" pageScale="1" pageWidth="1169" pageHeight="1654" math="0" shadow="0">
      <root>
        <mxCell id="0" />
        <mxCell id="1" parent="0" />
        <mxCell id="th-Rll01_gZHh90mzt_C-2" value="Parameterfile&lt;div&gt;&lt;br&gt;&lt;/div&gt;" style="swimlane;fontStyle=1;align=center;verticalAlign=top;childLayout=stackLayout;horizontal=1;startSize=26;horizontalStack=0;resizeParent=1;resizeParentMax=0;resizeLast=0;collapsible=1;marginBottom=0;whiteSpace=wrap;html=1;" vertex="1" parent="1">
          <mxGeometry x="230" y="180" width="430" height="502" as="geometry" />
        </mxCell>
        <mxCell id="th-Rll01_gZHh90mzt_C-3" value="+ file_path: string" style="text;strokeColor=none;fillColor=none;align=left;verticalAlign=top;spacingLeft=4;spacingRight=4;overflow=hidden;rotatable=0;points=[[0,0.5],[1,0.5]];portConstraint=eastwest;whiteSpace=wrap;html=1;" vertex="1" parent="th-Rll01_gZHh90mzt_C-2">
          <mxGeometry y="26" width="430" height="26" as="geometry" />
        </mxCell>
        <mxCell id="th-Rll01_gZHh90mzt_C-16" value="+ frame_count: int" style="text;strokeColor=none;fillColor=none;align=left;verticalAlign=top;spacingLeft=4;spacingRight=4;overflow=hidden;rotatable=0;points=[[0,0.5],[1,0.5]];portConstraint=eastwest;whiteSpace=wrap;html=1;" vertex="1" parent="th-Rll01_gZHh90mzt_C-2">
          <mxGeometry y="52" width="430" height="26" as="geometry" />
        </mxCell>
        <mxCell id="th-Rll01_gZHh90mzt_C-17" value="+ batch_size: int" style="text;strokeColor=none;fillColor=none;align=left;verticalAlign=top;spacingLeft=4;spacingRight=4;overflow=hidden;rotatable=0;points=[[0,0.5],[1,0.5]];portConstraint=eastwest;whiteSpace=wrap;html=1;" vertex="1" parent="th-Rll01_gZHh90mzt_C-2">
          <mxGeometry y="78" width="430" height="26" as="geometry" />
        </mxCell>
        <mxCell id="th-Rll01_gZHh90mzt_C-18" value="+ frame_buffer[batch_size]: array" style="text;strokeColor=none;fillColor=none;align=left;verticalAlign=top;spacingLeft=4;spacingRight=4;overflow=hidden;rotatable=0;points=[[0,0.5],[1,0.5]];portConstraint=eastwest;whiteSpace=wrap;html=1;" vertex="1" parent="th-Rll01_gZHh90mzt_C-2">
          <mxGeometry y="104" width="430" height="26" as="geometry" />
        </mxCell>
        <mxCell id="th-Rll01_gZHh90mzt_C-19" value="+ foot_positions: array" style="text;strokeColor=none;fillColor=none;align=left;verticalAlign=top;spacingLeft=4;spacingRight=4;overflow=hidden;rotatable=0;points=[[0,0.5],[1,0.5]];portConstraint=eastwest;whiteSpace=wrap;html=1;" vertex="1" parent="th-Rll01_gZHh90mzt_C-2">
          <mxGeometry y="130" width="430" height="26" as="geometry" />
        </mxCell>
        <mxCell id="th-Rll01_gZHh90mzt_C-20" value="+ cm_positions: array" style="text;strokeColor=none;fillColor=none;align=left;verticalAlign=top;spacingLeft=4;spacingRight=4;overflow=hidden;rotatable=0;points=[[0,0.5],[1,0.5]];portConstraint=eastwest;whiteSpace=wrap;html=1;" vertex="1" parent="th-Rll01_gZHh90mzt_C-2">
          <mxGeometry y="156" width="430" height="26" as="geometry" />
        </mxCell>
        <mxCell id="th-Rll01_gZHh90mzt_C-21" value="+ knee_angles: array" style="text;strokeColor=none;fillColor=none;align=left;verticalAlign=top;spacingLeft=4;spacingRight=4;overflow=hidden;rotatable=0;points=[[0,0.5],[1,0.5]];portConstraint=eastwest;whiteSpace=wrap;html=1;" vertex="1" parent="th-Rll01_gZHh90mzt_C-2">
          <mxGeometry y="182" width="430" height="26" as="geometry" />
        </mxCell>
        <mxCell id="th-Rll01_gZHh90mzt_C-4" value="" style="line;strokeWidth=1;fillColor=none;align=left;verticalAlign=middle;spacingTop=-1;spacingLeft=3;spacingRight=3;rotatable=0;labelPosition=right;points=[];portConstraint=eastwest;strokeColor=inherit;" vertex="1" parent="th-Rll01_gZHh90mzt_C-2">
          <mxGeometry y="208" width="430" height="8" as="geometry" />
        </mxCell>
        <mxCell id="th-Rll01_gZHh90mzt_C-5" value="+ Parameterfile(str): None" style="text;strokeColor=none;fillColor=none;align=left;verticalAlign=top;spacingLeft=4;spacingRight=4;overflow=hidden;rotatable=0;points=[[0,0.5],[1,0.5]];portConstraint=eastwest;whiteSpace=wrap;html=1;" vertex="1" parent="th-Rll01_gZHh90mzt_C-2">
          <mxGeometry y="216" width="430" height="26" as="geometry" />
        </mxCell>
        <mxCell id="th-Rll01_gZHh90mzt_C-11" value="+ load(): bool" style="text;strokeColor=none;fillColor=none;align=left;verticalAlign=top;spacingLeft=4;spacingRight=4;overflow=hidden;rotatable=0;points=[[0,0.5],[1,0.5]];portConstraint=eastwest;whiteSpace=wrap;html=1;" vertex="1" parent="th-Rll01_gZHh90mzt_C-2">
          <mxGeometry y="242" width="430" height="26" as="geometry" />
        </mxCell>
        <mxCell id="th-Rll01_gZHh90mzt_C-6" value="+ add_to_buffer(Frame): bool" style="text;strokeColor=none;fillColor=none;align=left;verticalAlign=top;spacingLeft=4;spacingRight=4;overflow=hidden;rotatable=0;points=[[0,0.5],[1,0.5]];portConstraint=eastwest;whiteSpace=wrap;html=1;" vertex="1" parent="th-Rll01_gZHh90mzt_C-2">
          <mxGeometry y="268" width="430" height="26" as="geometry" />
        </mxCell>
        <mxCell id="th-Rll01_gZHh90mzt_C-7" value="+ write_to_file(): bool" style="text;strokeColor=none;fillColor=none;align=left;verticalAlign=top;spacingLeft=4;spacingRight=4;overflow=hidden;rotatable=0;points=[[0,0.5],[1,0.5]];portConstraint=eastwest;whiteSpace=wrap;html=1;" vertex="1" parent="th-Rll01_gZHh90mzt_C-2">
          <mxGeometry y="294" width="430" height="26" as="geometry" />
        </mxCell>
        <mxCell id="th-Rll01_gZHh90mzt_C-8" value="+ add_metadata(Tuple): bool" style="text;strokeColor=none;fillColor=none;align=left;verticalAlign=top;spacingLeft=4;spacingRight=4;overflow=hidden;rotatable=0;points=[[0,0.5],[1,0.5]];portConstraint=eastwest;whiteSpace=wrap;html=1;" vertex="1" parent="th-Rll01_gZHh90mzt_C-2">
          <mxGeometry y="320" width="430" height="26" as="geometry" />
        </mxCell>
        <mxCell id="th-Rll01_gZHh90mzt_C-9" value="+ get_takeoff_frame(): int" style="text;strokeColor=none;fillColor=none;align=left;verticalAlign=top;spacingLeft=4;spacingRight=4;overflow=hidden;rotatable=0;points=[[0,0.5],[1,0.5]];portConstraint=eastwest;whiteSpace=wrap;html=1;" vertex="1" parent="th-Rll01_gZHh90mzt_C-2">
          <mxGeometry y="346" width="430" height="26" as="geometry" />
        </mxCell>
        <mxCell id="th-Rll01_gZHh90mzt_C-10" value="+ get_takeoff_angle(): tuple" style="text;strokeColor=none;fillColor=none;align=left;verticalAlign=top;spacingLeft=4;spacingRight=4;overflow=hidden;rotatable=0;points=[[0,0.5],[1,0.5]];portConstraint=eastwest;whiteSpace=wrap;html=1;" vertex="1" parent="th-Rll01_gZHh90mzt_C-2">
          <mxGeometry y="372" width="430" height="26" as="geometry" />
        </mxCell>
        <mxCell id="th-Rll01_gZHh90mzt_C-12" value="+ get_knee_angles(): array" style="text;strokeColor=none;fillColor=none;align=left;verticalAlign=top;spacingLeft=4;spacingRight=4;overflow=hidden;rotatable=0;points=[[0,0.5],[1,0.5]];portConstraint=eastwest;whiteSpace=wrap;html=1;" vertex="1" parent="th-Rll01_gZHh90mzt_C-2">
          <mxGeometry y="398" width="430" height="26" as="geometry" />
        </mxCell>
        <mxCell id="th-Rll01_gZHh90mzt_C-13" value="+ get_foot_positons(): array" style="text;strokeColor=none;fillColor=none;align=left;verticalAlign=top;spacingLeft=4;spacingRight=4;overflow=hidden;rotatable=0;points=[[0,0.5],[1,0.5]];portConstraint=eastwest;whiteSpace=wrap;html=1;" vertex="1" parent="th-Rll01_gZHh90mzt_C-2">
          <mxGeometry y="424" width="430" height="26" as="geometry" />
        </mxCell>
        <mxCell id="th-Rll01_gZHh90mzt_C-14" value="+ get_cm_position(): array" style="text;strokeColor=none;fillColor=none;align=left;verticalAlign=top;spacingLeft=4;spacingRight=4;overflow=hidden;rotatable=0;points=[[0,0.5],[1,0.5]];portConstraint=eastwest;whiteSpace=wrap;html=1;" vertex="1" parent="th-Rll01_gZHh90mzt_C-2">
          <mxGeometry y="450" width="430" height="26" as="geometry" />
        </mxCell>
        <mxCell id="th-Rll01_gZHh90mzt_C-15" value="+ close(): bool" style="text;strokeColor=none;fillColor=none;align=left;verticalAlign=top;spacingLeft=4;spacingRight=4;overflow=hidden;rotatable=0;points=[[0,0.5],[1,0.5]];portConstraint=eastwest;whiteSpace=wrap;html=1;" vertex="1" parent="th-Rll01_gZHh90mzt_C-2">
          <mxGeometry y="476" width="430" height="26" as="geometry" />
        </mxCell>
      </root>
    </mxGraphModel>
  </diagram>
</mxfile>
